<?xml version="1.0" encoding="utf-8"?>
<!-- Generator: Adobe Illustrator 18.1.1, SVG Export Plug-In . SVG Version: 6.00 Build 0)  -->
<svg version="1.1" id="Слой_1" xmlns="http://www.w3.org/2000/svg" xmlns:xlink="http://www.w3.org/1999/xlink" x="0px" y="0px"
	 viewBox="0 0 131.5 121.7" enable-background="new 0 0 131.5 121.7" xml:space="preserve">
<g>
	<path fill="#FFFFFF" d="M130.6,61.1L67.8,0.8c-0.1-0.1-0.1-0.1-0.2-0.2c-0.1-0.1-0.2-0.1-0.2-0.2c-0.1-0.1-0.2-0.1-0.3-0.1
		c-0.1,0-0.2-0.1-0.3-0.1c-0.1,0-0.2-0.1-0.3-0.1c-0.1,0-0.2-0.1-0.3-0.1c-0.1,0-0.2,0-0.3,0c-0.1,0-0.2,0-0.3,0c-0.1,0-0.2,0-0.3,0
		c-0.1,0-0.2,0-0.3,0c-0.1,0-0.2,0-0.3,0.1c-0.1,0-0.2,0.1-0.3,0.1c-0.1,0-0.2,0.1-0.3,0.1c-0.1,0-0.2,0.1-0.3,0.1
		c-0.1,0.1-0.2,0.1-0.2,0.2c-0.1,0.1-0.1,0.1-0.2,0.1L0.9,61.1c-1.2,1.1-1.2,3-0.1,4.2c0.6,0.6,1.4,0.9,2.2,0.9
		c0.7,0,1.5-0.3,2.1-0.8L65.8,7.2l60.7,58.3c0.6,0.6,1.3,0.8,2.1,0.8c0.8,0,1.6-0.3,2.2-0.9C131.8,64.1,131.8,62.2,130.6,61.1z"/>
	<path fill="#FFFFFF" d="M111.3,60.2c-1.7,0-3,1.3-3,3v52.5H81.8V84c0-1.7-1.3-3-3-3H52.3c-1.7,0-3,1.3-3,3v31.8h-26V63.2
		c0-1.7-1.3-3-3-3s-3,1.3-3,3v55.5c0,1.7,1.3,3,3,3h32c1.7,0,3-1.3,3-3V87h20.5v31.8c0,1.7,1.3,3,3,3h32.5c1.7,0,3-1.3,3-3V63.2
		C114.3,61.6,112.9,60.2,111.3,60.2z"/>
	<path fill="#FFFFFF" d="M85.8,12.7h17v16.9c0,1.7,1.4,3,3,3s3-1.4,3-3v-20c0-1.7-1.4-3-3-3c-0.3,0-0.6,0.1-0.9,0.1H85.8
		c-1.7,0-3,1.3-3,3S84.1,12.7,85.8,12.7z"/>
</g>
</svg>
